<?xml version="1.0" encoding="utf-8"?>

<!DOCTYPE svg PUBLIC "-//W3C//DTD SVG 1.1//EN" "http://www.w3.org/Graphics/SVG/1.1/DTD/svg11.dtd">
<svg version="1.1" id="Layer_1" xmlns="http://www.w3.org/2000/svg" xmlns:xlink="http://www.w3.org/1999/xlink" x="0px" y="0px"
	 viewBox="0 0 1662.177 1656.199" enable-background="new 0 0 1662.177 1656.199" xml:space="preserve">
<g>
	<g>
		<g>
			<path fill="#9D3D91" d="M696.638,1583.797c7.142,0.223,35.1,1.685,44.554,2.761c37.393,3.806,32.798,38.266,7.676,41.26
				C737.69,1628.927,725.534,1625.52,696.638,1583.797z"/>
			<path fill="#434B4F" d="M701.804,1554.569c7.407-5.525,25.799-18.767,33.748-23.703c36.41-22.776,51.805,26.617,21.936,33.835
				C746.743,1567.426,712.964,1558.059,701.804,1554.569z"/>
			<path fill="#AB9947" d="M622.123,1566.742c7.108,0.939,34.685,5.176,44.06,7.199c45.752,9.375,20.569,55.613-9.888,38.272
				C645.799,1606.239,628.301,1577.904,622.123,1566.742z"/>
			<path fill="#F9A3D1" d="M630.188,1538.179c3.091-1.856,31.244-18.609,42.788-23.274c28.861-11.55,42.794,34.623,11.601,38.907
				C673.816,1555.479,641.429,1542.974,630.188,1538.179z"/>
			<path fill="#876F95" d="M549.685,1542.317c2.758,0.647,47.477,11.181,56.16,17.043c17.966,12.483,9.565,38.338-13.717,36.488
				C580.113,1594.651,569.078,1587.45,549.685,1542.317z"/>
			<path fill="#85F745" d="M560.573,1514.705c11.287-5.328,41.85-19.654,50.305-19.901c27.478-0.805,30.116,39.877,2.246,40.899
				C601.821,1536.27,570.514,1520.164,560.573,1514.705z"/>
			<path fill="#FD7701" d="M480.075,1510.731c44.235,16.367,60.289,19.921,62.034,37.2c2.15,21.502-28.406,28.917-41.541,9.556
				C491.92,1544.781,482.972,1520.39,480.075,1510.731z"/>
			<path fill="#393DEB" d="M493.669,1484.347c44.138-15.168,54.982-19.672,66.317-7.817c12.495,13.347,3.228,35.209-16.144,34.001
				C532.226,1509.602,502.729,1490.768,493.669,1484.347z"/>
			<path fill="#4971A9" d="M413.97,1472.363c33.136,16.145,25.91,12.467,39.924,19.957c40.968,22.457,3.22,58.972-20.783,33.632
				C424.952,1517.46,416.407,1484.049,413.97,1472.363z"/>
			<path fill="#009569" d="M430.123,1447.463c24.808-5.737,45.416-10.687,53.235-9.443c26.701,4.456,21.94,45.23-5.93,40.519
				C466.128,1476.46,439.222,1455.374,430.123,1447.463z"/>
			<path fill="#3159F5" d="M352.007,1427.625c8.033,4.956,27.604,16.708,37.723,23.848c38.581,26.276-2.638,59.109-24.02,31.396
				c-6.451-8.671-11.405-36.704-12.861-48.079C352.285,1430.414,352.007,1427.625,352.007,1427.625z"/>
			<path fill="#75436F" d="M370.549,1404.45c44.452-5.69,57.997-8.862,66.543,5.52c7.734,12.753,0.525,28.796-14.065,30.729
				C407.575,1442.764,381.157,1415.89,370.549,1404.45z"/>
			<path fill="#A9DBEF" d="M294.775,1376.981c1,0.745,20.303,15.342,27.805,21.355c49.378,39.196-3.101,62.871-19.625,34.955
				C296.619,1422.801,294.804,1389.337,294.775,1376.981z"/>
			<path fill="#FB938F" d="M315.52,1355.754c18.308-0.55,31.176-0.852,41.206-0.498c47.051,1.663,24.425,64.748-12.148,32.381
				C336.123,1380,325.68,1368.887,315.52,1355.754z"/>
			<path fill="#439903" d="M242.825,1320.933c40.236,36.416,42.812,41.439,43.545,50.246c2.012,24.492-30.476,28.946-40.955,6.582
				C240.12,1366.728,241.649,1333.277,242.825,1320.933z"/>
			<path fill="#2549D9" d="M265.567,1301.861c45.54,3.066,58.688,3.071,64.185,18.493c5.09,14.166-5.474,28.518-19.886,27.399
				c-7.755-0.593-14.51-4.468-30.58-25.975C273.644,1314.158,270.762,1310.092,265.567,1301.861z"/>
			<path fill="#11C7B5" d="M196.667,1260.021c1.761,1.931,26.613,29.521,33.946,40.46c13.221,19.471-5.098,41.409-25.241,30.169
				C185.906,1319.714,191.085,1288.665,196.667,1260.021z"/>
			<path fill="#D7ABC9" d="M221.187,1243.296c43.559,7.24,57.94,8.577,62.051,24.741c5.158,20.019-18.662,35.226-34.749,18.363
				C239.13,1276.47,227.376,1255.564,221.187,1243.296z"/>
			<path fill="#C9F9F1" d="M156.775,1194.825c31.895,42.592,37.45,52.657,30.421,65.619c-9.159,16.842-33.874,10.447-39.057-9.408
				C145.003,1239.713,153.174,1206.84,156.775,1194.825z"/>
			<path fill="#2F5BE7" d="M182.836,1180.622c9.657,2.527,44.335,11.643,51.358,17.016c21.335,16.871-2.284,50.155-24.51,32.808
				C200.851,1223.755,187.157,1191.733,182.836,1180.622z"/>
			<path fill="#B14305" d="M123.596,1125.962c19.336,32.878,26.154,46.136,27.075,52.067c5.686,33.662-49.181,34.088-40.057-11.123
				C113.289,1153.642,118.616,1138.109,123.596,1125.962z"/>
			<path fill="#516F03" d="M150.946,1114.434c9.722,3.699,28.846,11.057,38.233,15.466c38.942,18.293,5.73,57.909-16.506,36.792
				C163.961,1158.191,152.239,1119.968,150.946,1114.434z"/>
			<path fill="#39DB83" d="M97.487,1054.116c8.056,18.138,21.264,45.644,21.696,54.529c2.069,29.735-39.411,30.099-41.367-1.137
				C76.956,1095.584,92.942,1062.274,97.487,1054.116z"/>
			<path fill="#956D17" d="M125.855,1045.386c26.952,13.563,42.205,21.522,46.912,26.89c17.459,20.323-11.944,48.798-30.558,27.289
				C134.756,1090.57,127.625,1056.67,125.855,1045.386z"/>
			<path fill="#EBF5C5" d="M78.702,980.018c7.065,21.771,7.362,20.909,13.642,42.505c12.603,45.085-39.921,43.495-38.578,8.648
				C54.075,1019.748,71.567,990.615,78.702,980.018z"/>
			<path fill="#25A7DD" d="M107.801,974.174c23.538,15.003,37.093,23.875,42.387,29.579c7.824,8.159,7.262,23.205-2.856,30.956
				c-9.232,7.065-21.995,4.659-28.682-4.993C111.875,1019.643,108.132,982.273,107.801,974.174z"/>
			<path fill="#E371B7" d="M67.407,904.423c1.434,6.492,5.346,22.082,9.337,43.648c8.853,50.812-52.797,35.416-37.458-1.06
				C45.311,932.686,61.247,911.624,67.407,904.423z"/>
			<path fill="#8B6753" d="M96.944,901.506c22.712,17.853,37.19,29.524,40.617,35.704c13.219,23.744-21.752,45.32-35.361,20.651
				C96.702,947.602,96.447,912.563,96.944,901.506z"/>
			<path fill="#AB0B95" d="M63.635,828.099c0.822,5.603,4.041,30.766,5.015,44.345c3.345,46.62-47.753,34.701-39.525,0.834
				C31.792,861.817,55.125,836.542,63.635,828.099z"/>
			<path fill="#09D78D" d="M93.315,828.099c7.899,7.421,33.324,31.471,36.93,39.566c10.745,24.81-25.93,43.038-37.258,17.049
				C88.505,873.845,91.805,840.01,93.315,828.099z"/>
		</g>
		<g>
			<path fill="#818100" d="M965.539,1583.797c-52.563,1.638-64.575,3.734-70.258,17.156c-8.272,19.587,17.878,36.059,36.837,21.427
				C942.827,1614.071,957.802,1594.968,965.539,1583.797z"/>
			<path fill="#1FBF43" d="M960.374,1554.569c-39.343-29.349-46.611-32.764-57.435-28.752c-18.903,6.529-19.268,33.806,1.75,38.885
				C915.701,1567.494,949.514,1557.964,960.374,1554.569z"/>
			<path fill="#B5C9DB" d="M1040.055,1566.742c-50.898,6.722-63.639,9.368-68.206,24.09c-6.122,19.799,21.89,38.255,44.32,11.616
				C1024.763,1592.157,1033.56,1578.475,1040.055,1566.742z"/>
			<path fill="#8D7FD5" d="M1031.99,1538.179c-40.701-24.441-50.64-30.014-63.429-20.901c-14.906,10.63-10.169,33.896,9.04,36.534
				C988.768,1555.542,1021.629,1542.598,1031.99,1538.179z"/>
			<path fill="#B35937" d="M1112.492,1542.317c-56.009,13.134-62.804,17.75-65.456,30.791c-3.762,18.583,19.068,29.892,36.01,17.868
				C1092.503,1584.263,1107.002,1555.094,1112.492,1542.317z"/>
			<path fill="#755369" d="M1101.604,1514.705c-45.346-21.406-52.458-22.647-61.997-16.761
				c-11.219,6.575-13.872,21.816-5.304,31.164C1044.089,1539.803,1058.2,1538.539,1101.604,1514.705z"/>
			<path fill="#ADC9D9" d="M1182.102,1510.731c-45.238,16.739-60.317,20.197-62.034,37.2c-2.15,21.502,28.406,28.916,41.541,9.556
				C1169.402,1546.038,1178.151,1523.905,1182.102,1510.731z"/>
			<path fill="#939749" d="M1168.508,1484.347c-45.258-15.553-55.208-19.436-66.317-7.817
				c-12.518,13.371-3.205,35.208,16.144,34.001C1130.034,1509.595,1158.76,1491.256,1168.508,1484.347z"/>
			<path fill="#55CF93" d="M1248.207,1472.363c-44.935,21.893-58,26.367-58,43.208c0,11.611,9.913,19.989,22.688,18.617
				C1230.433,1532.076,1239.075,1516.15,1248.207,1472.363z"/>
			<path fill="#3DDF6F" d="M1232.054,1447.463c-45.731-10.575-56.978-14.246-66.756-1.126c-11.09,14.447,0.31,35.438,19.451,32.202
				C1196.234,1476.426,1223.11,1455.239,1232.054,1447.463z"/>
			<path fill="#8D2FF7" d="M1310.171,1427.625c-41.939,25.877-49.369,29.922-52.601,40.67
				c-6.865,22.919,23.281,34.816,38.898,14.574C1303.844,1472.954,1308.933,1440,1310.171,1427.625z"/>
			<path fill="#97F70F" d="M1291.628,1404.45c-44.788-5.732-58.108-8.675-66.543,5.52c-7.669,12.645-0.65,28.78,14.065,30.729
				c7.993,1.068,13.298-2.374,20.411-7.395C1270.119,1425.575,1283.622,1413.084,1291.628,1404.45z"/>
			<path fill="#8DCD99" d="M1367.402,1376.981c-39.124,29.134-51.489,37.889-48.31,53.811c3.794,18.934,29.896,19.788,40.13,2.498
				C1365.59,1422.748,1367.373,1389.383,1367.402,1376.981z"/>
			<path fill="#5DBBAB" d="M1346.658,1355.754c-46.225-1.388-58.753-2.626-65.686,12.07c-8.149,17.675,8.474,34.534,25.426,27.717
				C1317.276,1391.189,1339.036,1365.604,1346.658,1355.754z"/>
			<path fill="#4B0555" d="M1419.352,1320.933c-38.261,34.63-47.182,43.88-42.747,58.33c3.307,10.843,15.197,16.358,27.111,11.099
				C1418.808,1383.658,1423.782,1367.437,1419.352,1320.933z"/>
			<path fill="#45795D" d="M1396.611,1301.861c-41.215,2.775-66.141,2.004-65.437,26.347c0.252,14.687,15.382,24.297,29.298,17.218
				C1370.823,1340.283,1390.213,1311.997,1396.611,1301.861z"/>
			<path fill="#D1EF29" d="M1465.51,1260.021c-35.162,38.56-42.566,48.308-36.761,62.284c4.258,10.231,16.368,14.868,28.055,8.345
				C1470.881,1322.742,1474.672,1307.032,1465.51,1260.021z"/>
			<path fill="#C3C9E3" d="M1440.99,1243.296c-43.843,7.287-58.024,8.91-62.051,24.741c-5.129,19.909,18.627,35.263,34.749,18.363
				C1422.912,1276.615,1434.385,1256.386,1440.99,1243.296z"/>
			<path fill="#CB39D1" d="M1505.402,1194.825c-31.274,41.761-37.439,52.677-30.421,65.619c9.159,16.842,33.873,10.448,39.057-9.408
				C1517.174,1239.713,1509.003,1206.84,1505.402,1194.825z"/>
			<path fill="#D35B6B" d="M1479.341,1180.622c-47.151,12.339-56.845,15.878-59.295,30.765
				c-1.728,11.252,5.798,22.021,16.931,23.489C1451.689,1236.834,1461.931,1225.391,1479.341,1180.622z"/>
			<path fill="#B17555" d="M1538.581,1125.962c-24.688,41.979-32.997,54.684-23.749,68.322
				c12.002,17.663,40.067,4.422,38.004-19.301C1551.421,1160.77,1544.01,1139.202,1538.581,1125.962z"/>
			<path fill="#E117C9" d="M1511.231,1114.434c-43.39,16.508-55.069,20.473-55.916,36.521
				c-1.018,18.394,20.195,29.026,34.189,15.737C1497.418,1158.97,1508.804,1124.825,1511.231,1114.434z"/>
			<path fill="#4D4F55" d="M1564.69,1054.116c-19.931,44.87-27.839,57.121-16.792,70.36c13.279,15.883,44.021,2.409,33.817-30.918
				C1577.436,1079.626,1569.187,1062.188,1564.69,1054.116z"/>
			<path fill="#2393D3" d="M1536.323,1045.386c-43.697,21.989-52.708,26.359-51.949,41.937c0.771,18.045,22.75,27.084,35.596,12.241
				C1527.379,1090.621,1534.525,1056.844,1536.323,1045.386z"/>
			<path fill="#850007" d="M1583.475,980.018c-14.166,43.657-22.345,59.278-9.656,71.687c8.316,8.136,21.237,6.869,29.177-3.206
				C1612.309,1036.33,1610.907,1020.762,1583.475,980.018z"/>
			<path fill="#655135" d="M1554.376,974.174c-40.454,25.788-50.009,30.93-47.468,46.938c2.563,17.967,25.54,24.596,36.62,8.605
				C1549.828,1020.349,1553.915,985.464,1554.376,974.174z"/>
			<path fill="#A3CF11" d="M1594.77,904.423c-10.075,45.566-16.077,61.404-2.451,72.283c16.178,12.927,43.627-6.421,26.981-37.028
				C1611.967,926.284,1599.8,910.302,1594.77,904.423z"/>
			<path fill="#DDD94B" d="M1565.233,901.506c-37.647,29.594-46.69,35.845-42.548,51.46c4.358,17.695,27.935,21.858,37.292,4.895
				C1565.45,947.649,1565.754,913.133,1565.233,901.506z"/>
			<path fill="#3D6509" d="M1598.542,828.099c-8.136,55.47-6.663,64.794,4.693,72.148c15.712,10.162,34.795-6.477,29.817-26.969
				C1630.411,861.928,1607.285,836.773,1598.542,828.099z"/>
			<path fill="#59D997" d="M1568.862,828.099c-8.056,7.568-33.244,31.291-36.93,39.566c-10.745,24.81,25.93,43.038,37.258,17.049
				C1573.73,873.703,1570.359,839.908,1568.862,828.099z"/>
		</g>
		<path fill="#775B41" d="M802.972,1605.099c14.874,14.445,41.381,14.422,56.233,0c33.084-31.55-17.441-81.836-54.459-49.858
			C789.731,1568.465,787.925,1590.75,802.972,1605.099z"/>
	</g>
	<g>
		<g>
			<path fill="#B527DD" d="M965.539,72.402c-9.039-0.282-49.362-1.754-58.419-5.536c-27.417-11.812-8.628-48.934,19.885-36.294
				C938.024,35.457,958.291,61.936,965.539,72.402z"/>
			<path fill="#15394B" d="M960.374,101.63c-2.372,1.77-29.436,21.821-40.255,27.428c-27.491,14.339-46.1-30.149-15.429-37.56
				C915.481,88.761,949.452,98.215,960.374,101.63z"/>
			<path fill="#B5EDE3" d="M1040.055,89.456c-8.8-1.162-48.829-6.665-57.582-11.336c-17.349-9.644-14.644-33.329,5.521-37.208
				C1004.047,37.82,1017.116,48.019,1040.055,89.456z"/>
			<path fill="#CD87D7" d="M1031.99,118.02c-42.781,25.69-48.106,26.496-56.254,24.283c-24.115-6.43-22.471-46.736,15.471-38.291
				C1004.838,107.202,1018.755,112.375,1031.99,118.02z"/>
			<path fill="#9DFBD3" d="M1112.492,113.882c-9.047-2.122-48.261-11.711-56.16-17.043c-24.636-17.118,1.365-49.608,26.714-31.616
				C1092.916,72.229,1107.561,102.406,1112.492,113.882z"/>
			<path fill="#A55DD7" d="M1101.604,141.494c-11.313,5.34-41.853,19.654-50.305,19.901c-27.499,0.805-30.116-39.877-2.246-40.899
				C1060.366,119.929,1091.709,136.06,1101.604,141.494z"/>
			<path fill="#F5172D" d="M1182.102,145.467c-44.404-16.424-60.292-19.945-62.034-37.2c-2.043-20.428,29.046-33.292,45.746-2.548
				C1174.11,120.989,1180.832,141.232,1182.102,145.467z"/>
			<path fill="#F9F71B" d="M1168.508,171.852c-2.174,0.747-27.326,9.499-39.253,12.642c-41.491,10.931-41.565-40.737-10.92-38.826
				C1129.911,146.594,1159.54,165.495,1168.508,171.852z"/>
			<path fill="#417F51" d="M1248.207,183.836c-8.297-4.043-45.271-21.037-51.616-27.91c-23.467-24.716,21.266-55.874,39.385-13.275
				C1241.167,154.932,1245.527,170.984,1248.207,183.836z"/>
			<path fill="#CFDDA3" d="M1232.054,208.736c-45.418,10.503-56.986,14.236-66.756,1.126c-11.223-14.621,0.519-35.403,19.451-32.202
				C1196.078,179.744,1222.912,200.787,1232.054,208.736z"/>
			<path fill="#1981A1" d="M1310.171,228.574c-8.044-4.964-27.608-16.71-37.723-23.848c-29.251-19.921-12.632-45.855,8.738-41.176
				C1303.257,168.573,1307.312,199.981,1310.171,228.574z"/>
			<path fill="#2DE74D" d="M1291.628,251.749c-24.962,3.195-46.783,6.179-53.898,4.083c-26.577-7.262-16.594-47.512,9.905-39.698
				C1258.796,219.327,1284.012,243.535,1291.628,251.749z"/>
			<path fill="#852D09" d="M1367.402,279.218c-1-0.745-20.307-15.345-27.805-21.355c-43.854-34.811-7.3-57.919,13.349-41.945
				C1366.588,226.5,1367.361,261.4,1367.402,279.218z"/>
			<path fill="#B9575D" d="M1346.658,300.445c-46.521,1.397-53.52,1.38-61.014-5.648c-16.68-15.595-0.4-42.646,20.753-34.139
				C1317.161,264.964,1338.811,290.303,1346.658,300.445z"/>
			<path fill="#1525ED" d="M1419.352,335.266c-40.288-36.463-42.814-41.462-43.545-50.246c-2.012-24.491,30.476-28.946,40.955-6.582
				C1422.073,289.503,1420.515,323.063,1419.352,335.266z"/>
			<path fill="#EBB991" d="M1396.611,354.338c-14.723-0.991-30.941-2.151-41.04-3.591c-42.743-5.679-22.099-53.708,4.901-39.973
				C1370.71,315.86,1390.194,344.172,1396.611,354.338z"/>
			<path fill="#ED5913" d="M1465.51,396.178c-6.14-6.734-33.635-37.135-36.851-45.66c-12.191-32.155,41.588-43.112,41.509,2.932
				C1470.122,366.895,1467.961,383.6,1465.51,396.178z"/>
			<path fill="#9FEDCB" d="M1440.99,412.903c-46.934-7.801-53.14-9.565-58.687-17.562c-14.386-19.789,12.646-50.767,36.433-19.385
				C1427.017,386.954,1434.799,400.633,1440.99,412.903z"/>
			<path fill="#2325F9" d="M1505.402,461.374c-31.464-42.013-37.599-52.383-30.421-65.619c5.585-10.27,18.286-12.824,28.754-5.527
				C1517.605,399.699,1518.614,417.288,1505.402,461.374z"/>
			<path fill="#352563" d="M1479.341,475.577c-9.657-2.527-44.335-11.643-51.358-17.016c-24.286-19.204,9.73-59.823,32.865-21.945
				C1467.961,448.333,1474.371,462.798,1479.341,475.577z"/>
			<path fill="#1F63F5" d="M1538.581,530.237c-24.751-42.085-32.998-54.682-23.749-68.322c10.599-15.598,34.667-7.427,37.954,13.243
				C1554.708,487.371,1542.966,519.543,1538.581,530.237z"/>
			<path fill="#4D5B33" d="M1511.231,541.765c-9.678-3.683-28.832-11.05-38.233-15.466c-38.764-18.209-5.799-57.974,16.506-36.792
				C1498.213,498.005,1509.939,536.232,1511.231,541.765z"/>
			<path fill="#27D13F" d="M1564.69,602.083c-7.855-17.687-12.451-27.069-17.844-40.921c-17.015-43.646,35.338-47.248,37.515-12.471
				C1585.206,560.415,1569.71,593.072,1564.69,602.083z"/>
			<path fill="#EB2509" d="M1536.323,610.813c-5.192-2.613-26.357-13.175-36.482-19.217c-37.003-22.033,0.072-58.137,20.128-34.961
				C1527.361,565.556,1534.546,599.491,1536.323,610.813z"/>
			<path fill="#8D8559" d="M1583.475,676.181c-2.64-8.136-7.161-20.218-13.643-42.505c-12.576-44.986,39.926-43.614,38.578-8.648
				C1608.105,636.383,1590.765,665.354,1583.475,676.181z"/>
			<path fill="#335D8D" d="M1554.376,682.025c-5.893-3.757-25.377-16.089-34.37-22.778c-34.67-25.692,6.145-57.844,23.521-32.765
				C1550.274,636.513,1554.045,673.921,1554.376,682.025z"/>
			<path fill="#272F0B" d="M1594.77,751.776c-4.238-19.166-11.761-48.957-10.42-57.747c4.764-33.883,56.973-18.001,34.95,22.492
				C1610.969,731.737,1597.866,748.157,1594.77,751.776z"/>
			<path fill="#CBB907" d="M1565.233,754.693c-6.619-5.203-30.004-23.372-37.286-31.36c-21.277-23.338,16.993-52.255,32.03-24.995
				C1565.446,708.541,1565.726,743.695,1565.233,754.693z"/>
			<path fill="#1B9F2F" d="M1598.542,828.099c-1.051-7.168-6.984-49.51-4.672-58.481c7.872-33.196,58.529-12.225,32.537,25.834
				C1618.605,806.887,1607.123,819.586,1598.542,828.099z"/>
			<path fill="#39E775" d="M1568.862,828.099c-7.899-7.421-33.324-31.471-36.93-39.566c-10.745-24.81,25.93-43.038,37.258-17.049
				C1573.714,782.456,1570.349,816.374,1568.862,828.099z"/>
		</g>
		<g>
			<path fill="#53D919" d="M696.638,72.402c3.522-0.11,48.866-1.547,58.419-5.536c31.889-13.738,1.53-59.35-31.089-27.602
				C714.346,48.689,704.227,61.445,696.638,72.402z"/>
			<path fill="#5B17BD" d="M701.804,101.63c38.304,28.575,45.982,32.998,57.435,28.752c18.905-6.528,19.267-33.806-1.75-38.884
				C746.483,88.707,712.694,98.225,701.804,101.63z"/>
			<path fill="#255965" d="M622.123,89.456c9.517-1.257,48.898-6.701,57.582-11.336c10.683-5.939,14.791-18.678,8.582-28.212
				c-6.897-10.603-24.71-13.571-36.758-2.178C641.9,56.775,628.766,77.456,622.123,89.456z"/>
			<path fill="#CD194F" d="M630.188,118.02c43.714,26.251,49.521,27.76,60.005,22.883c18.123-8.317,15.832-35.571-5.616-38.516
				C673.412,100.658,640.589,113.584,630.188,118.02z"/>
			<path fill="#D75F91" d="M549.685,113.882c55.14-12.931,62.782-17.647,65.456-30.791c3.76-18.575-19.052-29.904-36.01-17.868
				C569.261,72.229,554.617,102.406,549.685,113.882z"/>
			<path fill="#8381CD" d="M560.573,141.494c11.287,5.328,41.85,19.654,50.305,19.901c27.143,0.795,30.447-39.865,2.246-40.899
				C601.959,119.936,570.663,135.953,560.573,141.494z"/>
			<path fill="#6DB9A1" d="M480.075,145.467c45.173-16.708,60.316-20.187,62.034-37.2c2.043-20.433-29.048-33.288-45.746-2.548
				C489.953,117.517,483.316,134.661,480.075,145.467z"/>
			<path fill="#21CFD1" d="M493.669,171.852c45.92,15.78,55.381,19.255,66.317,7.817c12.492-13.344,3.23-35.21-16.144-34.002
				C532.21,146.599,503.593,164.818,493.669,171.852z"/>
			<path fill="#23277B" d="M413.97,183.836c43.486-21.189,57.999-26.269,58-43.209c0-11.611-9.913-19.989-22.688-18.617
				C433.019,123.969,423.709,137.14,413.97,183.836z"/>
			<path fill="#A92B07" d="M430.123,208.736c45.227,10.459,57.034,14.171,66.756,1.126c11.045-14.389-0.241-35.449-19.451-32.202
				C465.904,179.78,439.134,200.902,430.123,208.736z"/>
			<path fill="#275BE7" d="M352.007,228.574c40.437-24.95,55.098-31.702,53.409-48.76c-1.19-11.971-12.441-18.888-24.424-16.265
				C365.216,167.14,356.747,181.175,352.007,228.574z"/>
			<path fill="#650B11" d="M370.549,251.749c45.439,5.817,58.208,8.506,66.543-5.52c9.808-16.171-4.687-35.362-22.55-30.095
				C403.476,219.3,378.626,243.039,370.549,251.749z"/>
			<path fill="#D5E595" d="M294.775,279.218c41.651-31.015,51.31-38.787,48.31-53.811c-2.388-11.919-14.567-17.598-25.897-13.745
				C296.349,218.558,294.847,248.409,294.775,279.218z"/>
			<path fill="#BDC13F" d="M315.52,300.445c47.424,1.424,53.95,0.977,61.014-5.648c16.609-15.529,0.579-42.718-20.753-34.139
				C345.068,264.943,323.768,289.783,315.52,300.445z"/>
			<path fill="#D92DF1" d="M242.825,335.266c40.989-37.097,42.876-42.216,43.545-50.246c2.205-26.838-39.7-32.242-43.972,7.252
				C241.142,305.01,241.595,322.354,242.825,335.266z"/>
			<path fill="#D58D8D" d="M265.567,354.338c38.852-2.615,66.146-1.814,65.437-26.347c-0.252-14.677-15.376-24.3-29.298-17.218
				C291.38,315.903,272.188,343.847,265.567,354.338z"/>
			<path fill="#0DDDAB" d="M196.667,396.178c35.197-38.6,42.583-48.267,36.761-62.284c-7.379-17.731-32.756-13.663-39.79,5.488
				C189.448,351.03,194.32,384.136,196.667,396.178z"/>
			<path fill="#77E5D1" d="M221.187,412.903c20.411-3.392,46.54-7.753,52.783-11.846c15.589-10.054,11.962-33.837-5.257-37.954
				C250.463,358.727,236.787,381.984,221.187,412.903z"/>
			<path fill="#47C325" d="M156.775,461.374c4.01-5.355,20.206-27.911,25.647-36.537c18.941-29.851-5.944-47.181-23.98-34.609
				C144.572,399.699,143.563,417.288,156.775,461.374z"/>
			<path fill="#035571" d="M182.836,475.577c9.657-2.527,44.335-11.643,51.358-17.016c21.335-16.871-2.284-50.155-24.51-32.809
				C200.649,432.597,187.053,464.733,182.836,475.577z"/>
			<path fill="#81DF7F" d="M123.596,530.237c24.777-42.128,32.969-54.725,23.749-68.322c-12.116-17.831-40.053-4.252-38.004,19.301
				C110.776,495.631,118.393,517.549,123.596,530.237z"/>
			<path fill="#230FE7" d="M150.946,541.765c45.705-17.39,52.653-20.619,55.333-32.604c4.652-19.787-18.101-34.378-33.607-19.653
				C163.94,498.028,152.236,536.242,150.946,541.765z"/>
			<path fill="#59216F" d="M97.487,602.083c8.05-18.128,21.264-45.639,21.696-54.529c2.076-29.843-39.415-30.038-41.367,1.137
				C76.995,560.081,91.934,592.115,97.487,602.083z"/>
			<path fill="#732F3F" d="M125.855,610.813c3.647-1.835,26.064-13,36.482-19.217c28.333-16.87,12.708-43.597-5.735-42.355
				C135.59,550.636,129.701,586.299,125.855,610.813z"/>
			<path fill="#43679F" d="M78.702,676.181c4.091-12.607,16.613-46.993,16.128-56.426c-1.138-30.032-42.261-25.785-41.064,5.273
				C54.069,636.25,70.554,664.079,78.702,676.181z"/>
			<path fill="#83B355" d="M107.801,682.025c23.956-15.27,39.877-25.556,43.969-31.461c15.478-22.211-17.034-47.3-33.12-24.082
				C112.292,635.935,108.235,671.416,107.801,682.025z"/>
			<path fill="#151FA1" d="M67.407,751.776c10.34-46.805,15.897-61.547,2.451-72.283c-16.44-13.136-37.674,6.927-31.751,26.548
				C42.134,718.603,58.811,741.729,67.407,751.776z"/>
			<path fill="#59837B" d="M96.944,754.693c37.239-29.273,46.669-35.925,42.548-51.46c-2.701-10.966-13.761-18.001-24.668-15.011
				c-14.388,3.948-16.445,17.327-17.776,42.29C96.716,735.682,96.712,749.538,96.944,754.693z"/>
			<path fill="#6F01BF" d="M63.635,828.099c7.666-52.257,7.482-64.264-4.693-72.148c-15.831-10.24-34.768,6.587-29.817,26.969
				C31.788,794.364,55.24,819.771,63.635,828.099z"/>
			<path fill="#CBBD85" d="M93.315,828.099c36.097-33.911,42.452-41.362,37.288-55.449c-6.069-17.059-29.796-19.106-37.616-1.166
				C88.462,782.459,91.819,816.299,93.315,828.099z"/>
		</g>
		<path fill="#331F4D" d="M859.205,51.099c-23.57-22.89-68.307-7.454-66.619,25.357c1.533,29.808,39.979,45.981,64.845,24.5
			C872.444,87.735,874.254,65.451,859.205,51.099z"/>
	</g>
</g>
</svg>
